<svg xmlns="http://www.w3.org/2000/svg" xmlns:xlink="http://www.w3.org/1999/xlink" viewBox="0 0 32 32"><defs><style>.cls-1{fill:none;clip-rule:evenodd;}.cls-2{clip-path:url(#clip-path);}.cls-3{clip-path:url(#clip-path-2);}</style><clipPath id="clip-path"><path class="cls-1" d="M-723.85-3328.31h-9.53a.87.87,0,0,1-.87-.87v-1.12a.87.87,0,0,1,.87-.87h9.53a.87.87,0,0,1,.86.87v1.12a.87.87,0,0,1-.86.87m4.6,3.84v-1.12a.87.87,0,0,0-.87-.87h-13.26a.87.87,0,0,0-.87.87v1.12a.87.87,0,0,0,.87.87h13.26a.87.87,0,0,0,.87-.87m-11.92,5.23v-1.12a.86.86,0,0,0-.87-.86h-1.34a.86.86,0,0,0-.87.86v1.12a.87.87,0,0,0,.87.87H-732a.87.87,0,0,0,.87-.87m5.13,0v-1.12a.86.86,0,0,0-.87-.86h-1.35a.86.86,0,0,0-.86.86v1.12a.87.87,0,0,0,.86.87h1.35a.87.87,0,0,0,.87-.87"/></clipPath><clipPath id="clip-path-2"><path class="cls-1" d="M-567.85-3323.31h-9.53a.87.87,0,0,1-.87-.87v-1.12a.87.87,0,0,1,.87-.87h9.53a.87.87,0,0,1,.86.87v1.12a.87.87,0,0,1-.86.87m4.6,3.84v-1.12a.87.87,0,0,0-.87-.87h-13.26a.87.87,0,0,0-.87.87v1.12a.87.87,0,0,0,.87.87h13.26a.87.87,0,0,0,.87-.87m-11.92,5.23v-1.12a.86.86,0,0,0-.87-.86h-1.34a.86.86,0,0,0-.87.86v1.12a.87.87,0,0,0,.87.87H-576a.87.87,0,0,0,.87-.87m5.13,0v-1.12a.86.86,0,0,0-.87-.86h-1.35a.86.86,0,0,0-.86.86v1.12a.87.87,0,0,0,.86.87h1.35a.87.87,0,0,0,.87-.87"/></clipPath></defs><title>KANO-ICONS-ARROW</title><g id="Layer_1" data-name="Layer 1"><path d="M25.83,17.74l-7,5.2a2,2,0,0,1-3-1.73V19h-7a3,3,0,0,1,0-6h7V10.79a2,2,0,0,1,3-1.73l7,5.21A2,2,0,0,1,25.83,17.74Z"/></g></svg>