<svg xmlns="http://www.w3.org/2000/svg" xmlns:xlink="http://www.w3.org/1999/xlink" viewBox="0 0 32 32"><defs><style>.cls-1{fill:none;clip-rule:evenodd;}.cls-2{clip-path:url(#clip-path);}.cls-3{clip-path:url(#clip-path-2);}</style><clipPath id="clip-path"><path class="cls-1" d="M-723.85-3188.14h-9.53a.87.87,0,0,1-.87-.87v-1.12a.87.87,0,0,1,.87-.87h9.53a.87.87,0,0,1,.86.87v1.12a.87.87,0,0,1-.86.87m4.6,3.84v-1.13a.86.86,0,0,0-.87-.86h-13.26a.86.86,0,0,0-.87.86v1.13a.87.87,0,0,0,.87.86h13.26a.87.87,0,0,0,.87-.86m-11.92,5.23v-1.12a.87.87,0,0,0-.87-.87h-1.34a.87.87,0,0,0-.87.87v1.12a.87.87,0,0,0,.87.87H-732a.87.87,0,0,0,.87-.87m5.13,0v-1.12a.87.87,0,0,0-.87-.87h-1.35a.87.87,0,0,0-.86.87v1.12a.87.87,0,0,0,.86.87h1.35a.87.87,0,0,0,.87-.87"/></clipPath><clipPath id="clip-path-2"><path class="cls-1" d="M-567.85-3183.14h-9.53a.87.87,0,0,1-.87-.87v-1.12a.87.87,0,0,1,.87-.87h9.53a.87.87,0,0,1,.86.87v1.12a.87.87,0,0,1-.86.87m4.6,3.84v-1.13a.86.86,0,0,0-.87-.86h-13.26a.86.86,0,0,0-.87.86v1.13a.87.87,0,0,0,.87.86h13.26a.87.87,0,0,0,.87-.86m-11.92,5.23v-1.12a.87.87,0,0,0-.87-.87h-1.34a.87.87,0,0,0-.87.87v1.12a.87.87,0,0,0,.87.87H-576a.87.87,0,0,0,.87-.87m5.13,0v-1.12a.87.87,0,0,0-.87-.87h-1.35a.87.87,0,0,0-.86.87v1.12a.87.87,0,0,0,.86.87h1.35a.87.87,0,0,0,.87-.87"/></clipPath></defs><title>KANO-ICONS-HEART</title><g id="Layer_1" data-name="Layer 1"><path d="M26.56,17.44l-.28.29-9.07,9.06a1.36,1.36,0,0,1-1.92,0L6.22,17.73l-.28-.29a7.24,7.24,0,0,1-.53-9.8A7.11,7.11,0,0,1,15.8,7.25l.45.45.45-.45a7.11,7.11,0,0,1,10.39.39A7.24,7.24,0,0,1,26.56,17.44Z"/></g></svg>