<svg xmlns="http://www.w3.org/2000/svg" viewBox="0 0 81.7 31.93"><defs><style>.cls-1{fill:#3c3c3b;}</style></defs><title>Logo</title><g id="Layer_2" data-name="Layer 2"><g id="Layer_1-2" data-name="Layer 1"><g id="Logo"><path class="cls-1" d="M69.69,10.6a4,4,0,0,0-1.15-.77,3.53,3.53,0,0,0-1.42-.28,3.58,3.58,0,0,0-1.41.27,3.71,3.71,0,0,0-1.12.72,3.31,3.31,0,0,0-.77,1.09A3.23,3.23,0,0,0,63.53,13v5.11a3.31,3.31,0,0,0,.24,1.4,3.54,3.54,0,0,0,.77,1.13,3.93,3.93,0,0,0,1.15.77,3.74,3.74,0,0,0,1.49.29,3.22,3.22,0,0,0,1.34-.28,3.71,3.71,0,0,0,1.12-.72,3.27,3.27,0,0,0,.77-1.08,3.31,3.31,0,0,0,.29-1.35l0-5.11a3.59,3.59,0,0,0-.27-1.39A3.33,3.33,0,0,0,69.69,10.6Z"/><path class="cls-1" d="M79.15,0H2.55A2.56,2.56,0,0,0,0,2.55V29.39a2.55,2.55,0,0,0,2.55,2.54h76.6a2.55,2.55,0,0,0,2.55-2.54V2.55A2.56,2.56,0,0,0,79.15,0ZM3.42,29.88a1.39,1.39,0,1,1,1.39-1.39A1.38,1.38,0,0,1,3.42,29.88Zm0-25.06A1.39,1.39,0,1,1,4.81,3.44,1.38,1.38,0,0,1,3.42,4.82ZM21.81,22.18a2.09,2.09,0,0,1,.64,1.52,2.22,2.22,0,0,1-.64,1.55,2.16,2.16,0,0,1-1.52.6,2.24,2.24,0,0,1-1.55-.6l-7.45-6.59v5a2.06,2.06,0,0,1-.63,1.52,2.22,2.22,0,0,1-3.08,0,2,2,0,0,1-.64-1.52V7.56a2.05,2.05,0,0,1,.64-1.5,2.17,2.17,0,0,1,3.08,0,2.08,2.08,0,0,1,.63,1.5v5l7.45-6.52a2.19,2.19,0,0,1,1.55-.64A2.15,2.15,0,0,1,21.81,9.1l-7.48,6.52ZM40,23.65a2,2,0,0,1-.59,1.44,2.09,2.09,0,0,1-1.46.64,2.15,2.15,0,0,1-1.48-.56,1.84,1.84,0,0,1-.63-1.43V20H28.71v3.65a1.94,1.94,0,0,1-.64,1.45,2,2,0,0,1-1.47.63,2.12,2.12,0,0,1-1.47-.58,1.8,1.8,0,0,1-.64-1.41V13.13a8,8,0,0,1,.63-3A7.65,7.65,0,0,1,29.19,6a7.58,7.58,0,0,1,3.07-.61A7.88,7.88,0,0,1,35.2,6a7.49,7.49,0,0,1,2.47,1.57A7.85,7.85,0,0,1,39.36,9.9a6.92,6.92,0,0,1,.64,3Zm17.49.09a2,2,0,0,1-.59,1.44,2.05,2.05,0,0,1-1.46.64A2.1,2.1,0,0,1,54,25.26a1.8,1.8,0,0,1-.63-1.42V13.22a3.62,3.62,0,0,0-.27-1.39,3.25,3.25,0,0,0-.77-1.13,3.68,3.68,0,0,0-1.15-.77,3.5,3.5,0,0,0-1.42-.29,3.38,3.38,0,0,0-1.34.27,4.14,4.14,0,0,0-1.12.72,3.42,3.42,0,0,0-.77,1.09,3.3,3.3,0,0,0-.29,1.34V23.74a2,2,0,0,1-.64,1.46,2,2,0,0,1-1.47.62,2.16,2.16,0,0,1-1.47-.57A1.87,1.87,0,0,1,42,23.84V13.22a8,8,0,0,1,.63-3,7.5,7.5,0,0,1,1.63-2.46,7.9,7.9,0,0,1,10.92-.15A7.9,7.9,0,0,1,56.85,10a6.86,6.86,0,0,1,.64,3Zm17.4-5.66a7.59,7.59,0,0,1-.6,3,7.71,7.71,0,0,1-4.07,4.13,7.75,7.75,0,0,1-3.07.6,7.94,7.94,0,0,1-3-.56,7.48,7.48,0,0,1-2.46-1.56A7.85,7.85,0,0,1,60,21.31a6.86,6.86,0,0,1-.64-3V13.13a7.59,7.59,0,0,1,.59-3,7.5,7.5,0,0,1,1.63-2.46A7.65,7.65,0,0,1,64,6a7.78,7.78,0,0,1,3.14-.61A8,8,0,0,1,70.09,6a7.34,7.34,0,0,1,2.46,1.57,7.71,7.71,0,0,1,1.7,2.38,7.07,7.07,0,0,1,.64,3Zm3.38,11.8a1.39,1.39,0,1,1,1.39-1.39A1.39,1.39,0,0,1,78.27,29.88Zm0-25.06a1.39,1.39,0,1,1,1.39-1.38A1.39,1.39,0,0,1,78.27,4.82Z"/><path class="cls-1" d="M34.8,10.6a4,4,0,0,0-1.15-.77,3.49,3.49,0,0,0-1.42-.28,3.38,3.38,0,0,0-1.34.27,3.71,3.71,0,0,0-1.12.72A3.31,3.31,0,0,0,29,11.63,3.23,3.23,0,0,0,28.71,13v2.88h7.13V13.13a3.59,3.59,0,0,0-.27-1.39A3.2,3.2,0,0,0,34.8,10.6Z"/></g></g></g></svg>